<svg xmlns="http://www.w3.org/2000/svg" id="logoDesignConference" data-name="Layer 1" viewBox="0 0 391.86 44.51">
  <defs>
    <style>
      .cls-1{fill:none}
      .cls-2{fill: #2D3748;}
    </style>
  </defs>
  <path d="M187.67 6.22c-2.18 0-3.86 1.18-4.69 4.29l-1.86 6.93 6.9.69 2-7.62c.88-3.11-.17-4.29-2.35-4.29zM206.88 12.49l-1.97 7.33 2.08.2.01-7.53h-.12zM103.25 6.22a4.35 4.35 0 0 0-4.24 3l6.76.68c.53-2.64-.5-3.68-2.52-3.68zM325.55 12.49l-5.06 18.88 5.15.52.03-19.4h-.12zM12.36 37.79c2.17 0 3.78-1.11 4.61-4.22L23 10.94a6.81 6.81 0 0 0 .27-2.08l-6.87-.67-7.9 29.6zM277.09 26.29h-2.36l-.13.49 5.41.54a3.45 3.45 0 0 0-2.92-1.03zM284.4 15.48l1.15-4.29c.84-3.11.15-4.48-2.28-4.48H280l-3.6 13.37h2.67c2.55 0 4.4-1.08 5.33-4.6zM179.08 38.29c2.17 0 3.86-1.18 4.69-4.29l2.47-9.21-6.91-.68-2.65 9.89c-.83 3.11.22 4.29 2.4 4.29zM127.77 26.54l1.95-7.28-2.05-.2-.03 7.48h.13z" class="cls-1"/>
  <path d="M22.48.5H11.73L28.4 2.16C27.08 1.07 25.12.5 22.48.5zM23 10.94l-6 22.63c-.83 3.11-2.44 4.22-4.61 4.22H8.5l7.94-29.6-6.67-.65L0 44h10.82c6.83 0 11.18-3.78 13.07-10.74l5.9-22c.16-.6.28-1.17.38-1.72l-6.86-.67a6.81 6.81 0 0 1-.31 2.07zM55.67.5H37.02l-.66 2.46 18.17 1.82L55.67.5zM25.36 44.01h18.65l1.67-6.21H33.87l3.41-12.75h9.39l1.66-6.21h-9.38l2.2-8.23-6.66-.66-9.13 34.06zM60.11 24.55c3.42 3.92 4.16 6.28 3.31 9.45s-2.5 4.23-4.68 4.23-3.24-1.12-2.41-4.23l.83-3.11H50.7l-.7 2.68c-1.86 7 .55 10.94 7.27 10.94s11.26-4 13.12-10.94c1.33-5 .5-8.58-3.87-13.62-2.59-2.95-3.64-5-3.64-7.22L56 12.05c-.95 4.42.07 7.85 4.11 12.5zM69.23 0a12.11 12.11 0 0 0-10.41 5.21L77 7c.07-4.49-2.49-7-7.77-7zM89.99.5h-6.84l-1.86 6.95 6.66.67L89.99.5zM71.49 44.01h6.84L86.1 15l-6.66-.65-7.95 29.66zM103.25 6.22c2 0 3 1 2.52 3.68l6.32.63c1.66-6.7-.78-10.53-7.36-10.53-5.91 0-10.13 3.08-12.34 8.56l6.61.66a4.35 4.35 0 0 1 4.25-3zM85.54 33.57c-1.87 7 .55 10.94 7.26 10.94s11.26-4 13.13-10.94l3.7-13.8h-9.58L98.39 26h3.11l-2.15 8c-.83 3.11-2.5 4.23-4.68 4.23s-3.24-1.12-2.41-4.23l4.81-17.93-6.67-.65zM127.77 26.54h-.13l.03-7.48-5.47-.53-.05 25.48h7.03l6.48-24.17-5.94-.58-1.95 7.28zM127.72.5h-8.58l-2.8 10.46 11.35 1.13.03-11.59zM140.84.5h-6.09l-3.21 11.98 5.93.59L140.84.5zM107.48 44.01h6.16l6.87-25.65-6-.59-7.03 26.24zM146 33.57c-1.86 7 .55 10.94 7.27 10.94s11.26-4 13.12-10.94l1.55-5.78h-6.46L159.77 34c-.83 3.11-2.5 4.23-4.67 4.23s-3.25-1.12-2.41-4.23L156 21.83l-6.66-.66zM159 10.51c.83-3.11 2.52-4.29 4.69-4.29s3.23 1.18 2.4 4.29l-1.25 4.66h6.46l1.14-4.23C174.28 4 171.87 0 165.15 0S153.89 4 152 10.94l-.94 3.49 6.66.67zM183 10.51c.83-3.11 2.51-4.29 4.69-4.29s3.23 1.18 2.39 4.29l-2 7.62 6.66.66 2.11-7.85C198.65 4 196.05 0 189.34 0S177.89 4 176 10.94l-1.56 5.83 6.66.67zM183.77 34c-.83 3.11-2.52 4.29-4.69 4.29s-3.23-1.18-2.4-4.29l2.65-9.89-6.66-.65L170 33.57c-1.87 7 .74 10.94 7.45 10.94s11.45-4 13.31-10.94l2.18-8.13-6.66-.65zM192.28 44.01h6.15l4.71-17.57-6-.59-4.86 18.16zM225.63.5h-6.09l-5.42 20.23 5.93.6L225.63.5zM206.95 44.01h7.02l4.31-16.09-11.3-1.11-.03 17.2zM206.88 12.49h.12l-.01 7.53 5.46.55.06-20.07h-8.57l-5.02 18.71 5.99.61 1.97-7.33zM218.88 44.01h6.84l4.01-14.97-6.66-.65-4.19 15.62zM241.03 19.83h-8.83l3.52-13.12h11.25L248.63.5h-18.09l-5.71 21.31 15.26 1.52.94-3.5zM261.57 25.05l1.67-6.21h-9.39l3.25-12.13h11.81L270.58.5h-18.65l-6.27 23.39 11.63 1.16h4.28zM240.27 44.01h18.65l1.66-6.21h-11.81l1.8-6.73-6.66-.65-3.64 13.59zM278.25 38.67c-.95 3.54-.88 4.22-.81 5.34h7a12.8 12.8 0 0 1 .67-5.28l1.12-4.17-6.66-.66zM263.14 44.01h6.84l2.89-10.76-6.67-.65-3.06 11.41zM274.73 26.29h2.36a3.45 3.45 0 0 1 2.92 1l7.53.76c.1-2.49-.67-4.29-2.74-5.27v-.12c3.43-1.43 5.63-4.29 6.83-8.77l.91-3.41c1.8-6.72-.36-10-7.45-10H274.8l-6.86 25.62 6.66.66zM280 6.71h3.29c2.43 0 3.12 1.37 2.28 4.48l-1.15 4.29c-.93 3.48-2.78 4.6-5.33 4.6h-2.69zM300.05 25.05h9.39l1.67-6.21h-9.39l3.25-12.13h11.81L318.44.5H299.8l-7.52 28.05 6.66.67 1.11-4.17zM288.13 44.01h18.65l1.67-6.21h-11.81l.58-2.17-6.67-.65-2.42 9.03zM325.62 44.01h7.02l1.29-4.79-8.3-.81-.01 5.6zM310.95 44.01h6.15l1.68-6.27-5.99-.58-1.84 6.85zM325.55 12.49h.12l-.03 19.4 9.99 1L344.31.5h-6.1l-6.98 26.04h-.12L331.19.5h-8.58l-8.11 30.27 5.99.6 5.06-18.88zM347.06 44.51a12.58 12.58 0 0 0 8.7-3.15l-16.33-1.6c.74 3.07 3.28 4.75 7.63 4.75zM352.81 10.51c.84-3.11 2.52-4.29 4.7-4.29s3.22 1.18 2.39 4.29l-1.25 4.66h6.46l1.14-4.23C368.11 4 365.7 0 359 0s-11.26 4-13.12 10.94l-6 22.37 6.66.67zM360.18 33.57l1.55-5.78h-6.46L353.6 34c-.06.24-.14.45-.21.66l6.25.63c.2-.56.36-1.12.54-1.72zM373.47 25.05h9.39l1.66-6.21h-9.39l3.25-12.13h11.81L391.86.5h-18.65l-9.43 35.2 6.66.67 3.03-11.32zM361.55 44.01h18.65l.07-.26-18.17-1.77-.55 2.03zM370.77 39.8L11.78 3.8l-8.01-1 6.01 2 375.99 37-15-2z" class="cls-2" />
</svg>
